<?xml version="1.0" encoding="utf-8"?>
<!-- Generator: Adobe Illustrator 21.0.2, SVG Export Plug-In . SVG Version: 6.00 Build 0)  -->
<svg version="1.1" id="Layer_1" xmlns="http://www.w3.org/2000/svg" xmlns:xlink="http://www.w3.org/1999/xlink" x="0px" y="0px"
	 viewBox="0 0 256 256" style="enable-background:new 0 0 256 256;" xml:space="preserve">
<style type="text/css">
	.st0{opacity:0.45;}
	.st1{clip-path:url(#SVGID_2_);fill:#020202;}
	.st2{opacity:0.6;}
	.st3{clip-path:url(#SVGID_4_);fill:#020202;}
	.st4{opacity:0.3;}
	.st5{clip-path:url(#SVGID_6_);fill:#020202;}
	.st6{clip-path:url(#SVGID_8_);fill:#020202;}
	.st7{clip-path:url(#SVGID_10_);fill:#020202;}
	.st8{clip-path:url(#SVGID_12_);fill:#020202;}
	.st9{clip-path:url(#SVGID_14_);fill:#020202;}
	.st10{opacity:0.8;}
	.st11{clip-path:url(#SVGID_16_);fill:#020202;}
	.st12{clip-path:url(#SVGID_18_);fill:#020202;}
	.st13{clip-path:url(#SVGID_20_);fill:#020202;}
	.st14{clip-path:url(#SVGID_22_);fill:#020202;}
	.st15{clip-path:url(#SVGID_24_);fill:#020202;}
	.st16{clip-path:url(#SVGID_26_);fill:#020202;}
	.st17{clip-path:url(#SVGID_28_);fill:#020202;}
	.st18{clip-path:url(#SVGID_30_);fill:#020202;}
	.st19{clip-path:url(#SVGID_32_);fill:#020202;}
	.st20{clip-path:url(#SVGID_34_);fill:#020202;}
	.st21{clip-path:url(#SVGID_36_);fill:#020202;}
	.st22{clip-path:url(#SVGID_38_);fill:#020202;}
	.st23{clip-path:url(#SVGID_40_);fill:#020202;}
	.st24{clip-path:url(#SVGID_42_);fill:#020202;}
	.st25{clip-path:url(#SVGID_44_);fill:#020202;}
	.st26{clip-path:url(#SVGID_46_);fill:#020202;}
</style>
<g>
	<g class="st0">
		<g>
			<defs>
				<rect id="SVGID_1_" x="198.4" width="30" height="50.6"/>
			</defs>
			<clipPath id="SVGID_2_">
				<use xlink:href="#SVGID_1_"  style="overflow:visible;"/>
			</clipPath>
			<polygon class="st1" points="228.4,16.9 228.4,50.6 198.4,33.7 198.4,0 			"/>
		</g>
	</g>
	<g class="st2">
		<g>
			<defs>
				<rect id="SVGID_3_" x="198.4" y="16.9" width="30" height="50.6"/>
			</defs>
			<clipPath id="SVGID_4_">
				<use xlink:href="#SVGID_3_"  style="overflow:visible;"/>
			</clipPath>
			<polygon class="st3" points="198.4,33.7 198.4,67.5 228.4,50.6 228.4,16.9 			"/>
		</g>
	</g>
	<g class="st4">
		<g>
			<defs>
				<rect id="SVGID_5_" x="1" y="188.5" width="119.9" height="67.5"/>
			</defs>
			<clipPath id="SVGID_6_">
				<use xlink:href="#SVGID_5_"  style="overflow:visible;"/>
			</clipPath>
			<polygon class="st5" points="1,222.3 60.9,256 120.9,222.3 60.9,188.5 			"/>
		</g>
	</g>
	<g class="st0">
		<g>
			<defs>
				<rect id="SVGID_7_" x="1" y="154.8" width="60" height="101.2"/>
			</defs>
			<clipPath id="SVGID_8_">
				<use xlink:href="#SVGID_7_"  style="overflow:visible;"/>
			</clipPath>
			<polygon class="st6" points="60.9,188.5 60.9,256 1,222.3 1,154.8 			"/>
		</g>
	</g>
	<g class="st0">
		<g>
			<defs>
				<rect id="SVGID_9_" x="60.9" y="121.1" width="60" height="101.2"/>
			</defs>
			<clipPath id="SVGID_10_">
				<use xlink:href="#SVGID_9_"  style="overflow:visible;"/>
			</clipPath>
			<polygon class="st7" points="120.9,154.8 120.9,222.3 60.9,188.5 60.9,121.1 			"/>
		</g>
	</g>
	<g class="st2">
		<g>
			<defs>
				<rect id="SVGID_11_" x="60.9" y="154.8" width="60" height="101.2"/>
			</defs>
			<clipPath id="SVGID_12_">
				<use xlink:href="#SVGID_11_"  style="overflow:visible;"/>
			</clipPath>
			<polygon class="st8" points="60.9,188.5 60.9,256 120.9,222.3 120.9,154.8 			"/>
		</g>
	</g>
	<g class="st2">
		<g>
			<defs>
				<rect id="SVGID_13_" x="1" y="121.1" width="60" height="101.2"/>
			</defs>
			<clipPath id="SVGID_14_">
				<use xlink:href="#SVGID_13_"  style="overflow:visible;"/>
			</clipPath>
			<polygon class="st9" points="1,154.8 1,222.3 60.9,188.5 60.9,121.1 			"/>
		</g>
	</g>
	<g class="st10">
		<g>
			<defs>
				<rect id="SVGID_15_" x="127.2" y="58.1" width="60" height="33.7"/>
			</defs>
			<clipPath id="SVGID_16_">
				<use xlink:href="#SVGID_15_"  style="overflow:visible;"/>
			</clipPath>
			<polygon class="st11" points="127.2,75 157.2,91.8 187.2,75 157.2,58.1 			"/>
		</g>
	</g>
	<g class="st10">
		<g>
			<defs>
				<rect id="SVGID_17_" x="1" y="121.1" width="119.9" height="67.5"/>
			</defs>
			<clipPath id="SVGID_18_">
				<use xlink:href="#SVGID_17_"  style="overflow:visible;"/>
			</clipPath>
			<polygon class="st12" points="1,154.8 60.9,188.5 120.9,154.8 60.9,121.1 			"/>
		</g>
	</g>
	<g class="st4">
		<g>
			<defs>
				<rect id="SVGID_19_" x="135.1" y="188.5" width="119.9" height="67.5"/>
			</defs>
			<clipPath id="SVGID_20_">
				<use xlink:href="#SVGID_19_"  style="overflow:visible;"/>
			</clipPath>
			<polygon class="st13" points="135.1,222.3 195.1,256 255,222.3 195.1,188.5 			"/>
		</g>
	</g>
	<g class="st0">
		<g>
			<defs>
				<rect id="SVGID_21_" x="135.1" y="154.8" width="60" height="101.2"/>
			</defs>
			<clipPath id="SVGID_22_">
				<use xlink:href="#SVGID_21_"  style="overflow:visible;"/>
			</clipPath>
			<polygon class="st14" points="195.1,188.5 195.1,256 135.1,222.3 135.1,154.8 			"/>
		</g>
	</g>
	<g class="st0">
		<g>
			<defs>
				<rect id="SVGID_23_" x="195.1" y="121.1" width="60" height="101.2"/>
			</defs>
			<clipPath id="SVGID_24_">
				<use xlink:href="#SVGID_23_"  style="overflow:visible;"/>
			</clipPath>
			<polygon class="st15" points="255,154.8 255,222.3 195.1,188.5 195.1,121.1 			"/>
		</g>
	</g>
	<g class="st2">
		<g>
			<defs>
				<rect id="SVGID_25_" x="195.1" y="154.8" width="60" height="101.2"/>
			</defs>
			<clipPath id="SVGID_26_">
				<use xlink:href="#SVGID_25_"  style="overflow:visible;"/>
			</clipPath>
			<polygon class="st16" points="195.1,188.5 195.1,256 255,222.3 255,154.8 			"/>
		</g>
	</g>
	<g class="st2">
		<g>
			<defs>
				<rect id="SVGID_27_" x="135.1" y="121.1" width="60" height="101.2"/>
			</defs>
			<clipPath id="SVGID_28_">
				<use xlink:href="#SVGID_27_"  style="overflow:visible;"/>
			</clipPath>
			<polygon class="st17" points="135.1,154.8 135.1,222.3 195.1,188.5 195.1,121.1 			"/>
		</g>
	</g>
	<g class="st10">
		<g>
			<defs>
				<rect id="SVGID_29_" x="135.1" y="121.1" width="119.9" height="67.5"/>
			</defs>
			<clipPath id="SVGID_30_">
				<use xlink:href="#SVGID_29_"  style="overflow:visible;"/>
			</clipPath>
			<polygon class="st18" points="135.1,154.8 195.1,188.5 255,154.8 195.1,121.1 			"/>
		</g>
	</g>
	<g class="st2">
		<g>
			<defs>
				<rect id="SVGID_31_" x="127.2" y="24.4" width="30" height="50.6"/>
			</defs>
			<clipPath id="SVGID_32_">
				<use xlink:href="#SVGID_31_"  style="overflow:visible;"/>
			</clipPath>
			<polygon class="st19" points="127.2,41.2 127.2,75 157.2,58.1 157.2,24.4 			"/>
		</g>
	</g>
	<g class="st4">
		<g>
			<defs>
				<rect id="SVGID_33_" x="67.2" y="75" width="119.9" height="67.5"/>
			</defs>
			<clipPath id="SVGID_34_">
				<use xlink:href="#SVGID_33_"  style="overflow:visible;"/>
			</clipPath>
			<polygon class="st20" points="67.2,108.7 127.2,142.4 187.2,108.7 127.2,75 			"/>
		</g>
	</g>
	<g class="st0">
		<g>
			<defs>
				<rect id="SVGID_35_" x="67.2" y="41.2" width="60" height="101.2"/>
			</defs>
			<clipPath id="SVGID_36_">
				<use xlink:href="#SVGID_35_"  style="overflow:visible;"/>
			</clipPath>
			<polygon class="st21" points="127.2,75 127.2,142.4 67.2,108.7 67.2,41.2 			"/>
		</g>
	</g>
	<g class="st2">
		<g>
			<defs>
				<rect id="SVGID_37_" x="67.2" y="7.5" width="60" height="101.2"/>
			</defs>
			<clipPath id="SVGID_38_">
				<use xlink:href="#SVGID_37_"  style="overflow:visible;"/>
			</clipPath>
			<polygon class="st22" points="67.2,41.2 67.2,108.7 127.2,75 127.2,7.5 			"/>
		</g>
	</g>
	<g class="st2">
		<g>
			<defs>
				<rect id="SVGID_39_" x="127.2" y="58.1" width="60" height="84.3"/>
			</defs>
			<clipPath id="SVGID_40_">
				<use xlink:href="#SVGID_39_"  style="overflow:visible;"/>
			</clipPath>
			<polygon class="st23" points="157.2,91.8 157.2,58.1 127.2,75 127.2,108.7 127.2,142.4 157.2,125.5 187.2,108.7 187.2,75 			"/>
		</g>
	</g>
	<g class="st0">
		<g>
			<defs>
				<rect id="SVGID_41_" x="127.2" y="7.5" width="60" height="101.2"/>
			</defs>
			<clipPath id="SVGID_42_">
				<use xlink:href="#SVGID_41_"  style="overflow:visible;"/>
			</clipPath>
			<polygon class="st24" points="157.2,24.4 127.2,7.5 127.2,75 187.2,108.7 187.2,75 157.2,58.1 			"/>
		</g>
	</g>
	<g class="st10">
		<g>
			<defs>
				<rect id="SVGID_43_" x="67.2" y="7.5" width="89.9" height="67.5"/>
			</defs>
			<clipPath id="SVGID_44_">
				<use xlink:href="#SVGID_43_"  style="overflow:visible;"/>
			</clipPath>
			<polygon class="st25" points="127.2,7.5 157.2,24.4 127.2,41.2 127.2,75 67.2,41.2 			"/>
		</g>
	</g>
	<g class="st10">
		<g>
			<defs>
				<rect id="SVGID_45_" x="168.4" width="60" height="33.7"/>
			</defs>
			<clipPath id="SVGID_46_">
				<use xlink:href="#SVGID_45_"  style="overflow:visible;"/>
			</clipPath>
			<polygon class="st26" points="168.4,16.9 198.4,33.7 228.4,16.9 198.4,0 			"/>
		</g>
	</g>
</g>
</svg>
