<svg id="Layer_1" data-name="Layer 1" xmlns="http://www.w3.org/2000/svg" viewBox="0 0 208 210.08"><defs><style>.cls-1{fill:#020202;}</style></defs><title>swarm</title><polygon class="cls-1" points="162 55.36 187 41.52 187 13.84 161.78 0 137.29 13.84 162 27.68 162 55.36"/><polygon class="cls-1" points="0 127.05 0 182.4 49 210.08 98 182.4 98 127.05 49 99.37 0 127.05"/><polygon class="cls-1" points="158.77 99.28 110 127.05 110 182.4 159 210.08 208 182.4 208 126.86 207.43 126.86 207.54 126.86 158.77 99.28"/><polygon class="cls-1" points="153 61.51 152.22 61.6 152.19 61.51 144.78 57.42 145.12 57.42 128 47.67 128 20.2 127.97 19.99 103.29 6.15 54 33.83 54 89.19 102.97 116.86 152.18 89.19 152.29 89.08 153 89.19 153 61.51"/></svg>